<?xml version="1.0" encoding="UTF-8"?>
<!DOCTYPE svg PUBLIC "-//W3C//DTD SVG 1.1//EN" "http://www.w3.org/Graphics/SVG/1.1/DTD/svg11.dtd">
<!-- Creator: CorelDRAW X7 -->
<svg xmlns="http://www.w3.org/2000/svg" xml:space="preserve" width="45.393mm" height="19.536mm" version="1.1" style="shape-rendering:geometricPrecision; text-rendering:geometricPrecision; image-rendering:optimizeQuality; fill-rule:evenodd; clip-rule:evenodd"
viewBox="0 0 4539 1954"
 xmlns:xlink="http://www.w3.org/1999/xlink">
 <defs>
  <style type="text/css">
   <![CDATA[
    .fil0 {fill:#FEFEFE}
   ]]>
  </style>
 </defs>
 <g id="Слой_x0020_1">
  <metadata id="CorelCorpID_0Corel-Layer"/>
  <g id="_527039296">
   <path class="fil0" d="M37 258c-48,-38 -45,-93 -15,-159 52,-13 113,-15 165,-25 8,-1 23,-21 31,-23 115,-22 218,-46 304,-44 226,6 360,92 421,194 68,114 61,276 14,396 -52,132 -148,189 -202,195 322,223 244,703 216,1002l50 7c70,5 45,120 45,120 -51,28 -137,27 -181,26 -58,-1 -116,1 -142,-31l-5 -77c12,-32 8,-60 11,-117 -86,-282 111,-503 -228,-830 -9,-5 -41,0 -48,31 -34,143 12,579 -5,815 3,7 21,25 41,42 21,17 32,29 42,31 32,-12 16,70 23,105l-7 0c-42,56 -125,23 -147,5l-159 4c-153,76 -297,-65 -201,-112 18,-9 49,-7 86,-11l11 -752c17,-49 12,-104 -10,-170l-3 -619c-43,15 -78,10 -107,-3zm390 -71c371,-34 310,521 -1,494l1 -494z"/>
   <path class="fil0" d="M1904 325c-1,6 34,29 55,30 17,0 44,-9 59,-28 5,-10 26,-22 30,-33 33,-106 -24,-255 -63,-274 -178,-25 -409,-15 -561,29 -101,29 -220,30 -332,63 -19,13 3,47 16,66l160 18 5 1592c-56,27 -112,24 -168,15l-3 119c179,33 501,32 836,29 55,-36 75,-77 72,-122l6 -184c-36,-54 -124,-25 -141,15l-1 146c-167,14 -251,-8 -321,-36 0,-255 -17,-503 2,-721 49,-12 108,-12 177,-1l2 81c59,28 128,72 142,22l-1 -343c-72,-37 -146,-25 -151,11l1 101c-96,9 -171,-25 -203,-30l-1 -625c7,2 64,-94 108,-116l187 6c55,0 87,18 94,54l-6 116z"/>
   <path class="fil0" d="M2058 27c25,-17 54,-46 341,-10 15,2 20,13 37,16 177,-51 301,578 442,1029 60,-400 130,-948 258,-1007 64,-83 370,-30 381,-18 77,44 67,119 -21,146l-110 8 22 1579c49,13 97,27 146,41 27,52 15,86 -14,138 -128,1 -258,3 -390,5 -17,-15 -34,-30 -42,-46 -16,-34 -5,-68 16,-85l89 -24 -7 -1385 -249 1136c-14,36 -110,24 -124,8 -39,-32 -54,-109 -84,-210 -64,-213 -123,-499 -204,-710l-37 1134 79 3 -16 153 -400 -5c-46,-46 -45,-120 -14,-152l105 1 -1 -1619c-118,79 -227,3 -203,-126z"/>
   <path class="fil0" d="M3677 387c9,16 56,16 113,7 0,-8 15,-46 16,-72 0,-40 -13,-85 -13,-125l58 -28 362 0c-222,498 -335,1018 -530,1542 -2,7 -4,28 -7,35 -23,60 -38,123 -37,194l825 4c129,-7 48,-282 71,-423 -43,-41 -119,-47 -153,-24l-8 193c-8,52 -33,76 -70,78l-348 -4c11,-215 180,-663 381,-1172 59,-151 102,-285 169,-448 13,-90 -28,-128 -111,-127l-757 -7c-20,24 -6,112 13,219 9,50 15,105 26,158z"/>
  </g>
 </g>
</svg>
